<svg id="Layer_1" data-name="Layer 1" xmlns="http://www.w3.org/2000/svg" viewBox="0 0 432.6 61.63"><defs><style>.cls-1{fill:#ae0d00;}</style></defs><path class="cls-1" d="M397.13,532.07a.17.17,0,0,1,.19.19v45.46a3.52,3.52,0,0,0,3.53,3.49h37.93c.12,0,.18.07.18.22v2.06c0,.13-.06.19-.18.19H389.63A7.68,7.68,0,0,1,382,576V532.26c0-.13.06-.19.22-.19Z" transform="translate(-264.45 -522.08)"/><path class="cls-1" d="M495.79,532a7.85,7.85,0,0,1,5.47,2.25,7.69,7.69,0,0,1,2.22,5.44v36.33a7.68,7.68,0,0,1-7.69,7.65H454.15a7.62,7.62,0,0,1-5.41-2.25,7.54,7.54,0,0,1-2.28-5.4V539.73a7.73,7.73,0,0,1,7.69-7.69Zm-30.43,2.41a3.53,3.53,0,0,0-3.5,3.5v39.8a3.45,3.45,0,0,0,1,2.46,3.36,3.36,0,0,0,2.46,1.07h19.28a3.52,3.52,0,0,0,2.5-1.07,3.48,3.48,0,0,0,1-2.46V538a3.51,3.51,0,0,0-1-2.47,3.61,3.61,0,0,0-2.5-1Z" transform="translate(-264.45 -522.08)"/><path class="cls-1" d="M567.77,532a.17.17,0,0,1,.19.19v2a.17.17,0,0,1-.19.19H529.85a3.51,3.51,0,0,0-2.47,1,3.61,3.61,0,0,0-1,2.5v39.76a3.52,3.52,0,0,0,3.5,3.53h19.3a3.52,3.52,0,0,0,3.5-3.53V562.6a3.52,3.52,0,0,0-3.5-3.5h-8.62c-.12,0-.19-.07-.19-.22v-2a.17.17,0,0,1,.19-.18h19.78a7.68,7.68,0,0,1,7.65,7.66l0,11.73a7.68,7.68,0,0,1-7.68,7.66H518.63a7.59,7.59,0,0,1-5.4-2.25A7.7,7.7,0,0,1,511,576V539.7a7.68,7.68,0,0,1,7.65-7.66Z" transform="translate(-264.45 -522.08)"/><path class="cls-1" d="M624.82,532a7.85,7.85,0,0,1,5.47,2.25,7.69,7.69,0,0,1,2.22,5.44v36.33a7.68,7.68,0,0,1-7.69,7.65H583.18a7.62,7.62,0,0,1-5.41-2.25,7.54,7.54,0,0,1-2.28-5.4V539.73a7.73,7.73,0,0,1,7.69-7.69Zm-30.43,2.41a3.52,3.52,0,0,0-3.5,3.5v39.8a3.48,3.48,0,0,0,1,2.46,3.4,3.4,0,0,0,2.47,1.07h19.28a3.52,3.52,0,0,0,2.5-1.07,3.48,3.48,0,0,0,1-2.46V538a3.51,3.51,0,0,0-1-2.47,3.61,3.61,0,0,0-2.5-1Z" transform="translate(-264.45 -522.08)"/><path class="cls-1" d="M689.34,532.07a8.46,8.46,0,0,1,5.46,2.09,5.83,5.83,0,0,1,2.25,3.91v8.78a.17.17,0,0,1-.19.19h-15a.17.17,0,0,1-.19-.19v-8.94a3.36,3.36,0,0,0-1-2.34,3.53,3.53,0,0,0-2.47-1.06h-19.3a3.52,3.52,0,0,0-3.5,3.5V553.1a3.53,3.53,0,0,0,3.5,3.5h30.43a7.68,7.68,0,0,1,7.68,7.68V576a7.73,7.73,0,0,1-7.68,7.68H647.69A7.72,7.72,0,0,1,640,576v-7.84c0-.13.06-.19.18-.19h15c.15,0,.22.06.22.19v9.52a3.47,3.47,0,0,0,1,2.47,3.37,3.37,0,0,0,2.47,1.06h19.18a3.39,3.39,0,0,0,2.47-1.06,3.51,3.51,0,0,0,1-2.47V562.56a3.52,3.52,0,0,0-3.5-3.53h-30.4a7.72,7.72,0,0,1-7.68-7.68V539.73a7.66,7.66,0,0,1,7.68-7.66Z" transform="translate(-264.45 -522.08)"/><rect class="cls-1" y="10" width="25.83" height="25.84"/><rect class="cls-1" x="33.08" width="25.83" height="25.84"/><rect class="cls-1" x="66.16" y="10" width="25.83" height="25.84"/></svg>